<svg width="127" height="153" viewBox="0 0 127 153" fill="none" xmlns="http://www.w3.org/2000/svg">
<path d="M0.259766 63.24C0.259766 28.3135 28.5733 0 63.4998 0C98.4262 0 126.74 28.3135 126.74 63.24V89.76C126.74 124.686 98.4262 153 63.4998 153C28.5733 153 0.259766 124.686 0.259766 89.76V63.24Z" fill="#F0F0F0"/>
<g clip-path="url(#clip0)">
<path d="M49.7383 92.0069C49.5251 91.8843 49.3018 91.7801 49.0708 91.6953C47.3416 91.2099 45.7213 89.3265 45.5847 87.5515C45.2648 83.4198 44.9812 79.288 44.6665 75.1562C44.2982 70.3135 43.8884 65.4741 43.5408 60.6314C43.195 55.8695 42.9148 51.1042 42.5949 46.3423C42.5361 45.4816 42.3425 44.8136 41.4018 44.3178C39.8455 43.5018 39.0172 42.0797 39.0103 40.2652C39.0103 39.036 39.0103 37.8057 39.0103 36.5742C39.0189 34.7975 39.8109 33.3187 41.3412 32.5767C42.5396 31.9965 42.965 31.1633 43.1517 30.0529C43.6601 27.0298 46.5202 24.9966 49.5498 25.0104C58.2322 25.0517 66.9163 25.0328 75.6004 25.0207C78.585 25.0207 81.3068 27.0573 81.8567 30.0356C82.0504 31.0824 82.3443 31.981 83.5721 32.5354C85.1681 33.2584 85.9549 34.7734 85.993 36.5638C86.0154 37.7689 86.0033 38.974 85.993 40.1705C85.993 42.0815 85.1128 43.5345 83.4527 44.409C82.685 44.8136 82.4654 45.3473 82.4152 46.0841C82.3011 47.9382 82.2146 49.7958 82.0815 51.6499C81.8204 55.2979 81.5247 58.9442 81.2636 62.5922C81.1252 64.5324 81.0474 66.4761 80.9039 68.4146C80.6411 71.9748 80.3384 75.5315 80.0739 79.0883C79.9269 81.0561 79.8612 83.0307 79.6865 84.995C79.5828 86.1777 79.4738 87.3897 79.1297 88.5173C78.611 90.2389 77.3521 91.3011 75.5866 91.747C75.4655 91.778 75.3721 91.9191 75.2667 92.0069H49.7383ZM46.2799 51.8582C46.2799 52.1371 46.2678 52.3093 46.2799 52.478C46.5496 55.8643 46.8505 59.2507 47.0857 62.6353C47.4315 67.6267 47.7491 72.6192 48.0385 77.6129C48.0817 78.3962 48.3255 78.6183 49.1106 78.6166C58.0541 78.589 66.9981 78.589 75.9428 78.6166C76.6898 78.6166 76.9319 78.4083 76.9647 77.6628C77.0789 75.0633 77.2466 72.4654 77.4282 69.8693C77.6668 66.4778 77.9469 63.0898 78.1925 59.7C78.3619 57.4206 78.5251 55.1413 78.6819 52.8619C78.7043 52.5348 78.6819 52.206 78.6819 51.8531L46.2799 51.8582ZM62.5915 35.0953C56.4966 35.0953 50.4012 35.0953 44.3051 35.0953C42.9408 35.0953 42.3182 35.7065 42.3113 37.0355C42.3113 38.0375 42.2473 39.0446 42.3407 40.038C42.3839 40.4925 42.6243 41.0709 42.9719 41.3171C43.3921 41.6132 44.0215 41.7268 44.561 41.7285C56.5226 41.7492 68.483 41.7544 80.4422 41.744C80.6428 41.744 80.8451 41.744 81.0457 41.7354C81.2656 41.7323 81.4827 41.6859 81.6845 41.599C81.8863 41.512 82.0689 41.3862 82.2217 41.2288C82.3745 41.0714 82.4946 40.8854 82.575 40.6817C82.6554 40.4779 82.6945 40.2603 82.6902 40.0414C82.7075 39.0687 82.6245 38.0874 82.7161 37.1147C82.8372 35.8494 81.8809 35.0489 80.6186 35.0575C74.6078 35.128 68.5988 35.0953 62.5898 35.0953H62.5915ZM76.6103 81.8979H53.6014C52.1056 81.8979 50.6115 81.9065 49.1158 81.8979C48.6783 81.8979 48.3999 81.953 48.4552 82.5056C48.5987 83.9552 48.68 85.4116 48.827 86.8629C48.8622 87.3643 49.0883 87.8334 49.4592 88.1745C49.83 88.5155 50.3177 88.7028 50.8225 88.6981C58.6143 88.7084 66.4067 88.7084 74.1997 88.6981C75.1007 88.6981 75.9013 88.1816 76.0413 87.4224C76.3682 85.6371 76.4304 83.8123 76.6103 81.8979ZM62.5016 45.0357C57.2137 45.0357 51.9257 45.0357 46.6361 45.0271C46.0499 45.0271 45.7715 45.1665 45.8545 45.8035C45.9287 46.3424 45.9496 46.8874 45.9167 47.4304C45.8545 48.3015 46.2072 48.5305 47.0684 48.527C57.3584 48.4972 67.6483 48.4909 77.9383 48.5081C78.0818 48.5081 78.2271 48.4995 78.3689 48.5081C78.8427 48.5459 79.0519 48.3359 79.0606 47.8608C79.0727 47.1721 79.0744 46.4835 79.1505 45.8035C79.2231 45.1631 78.9533 45.0236 78.3689 45.0253C73.0827 45.0426 67.7913 45.0357 62.5016 45.0357ZM62.4878 31.8054H78.0127C78.4415 31.8054 78.8392 31.8054 78.7579 31.1736C78.679 30.3731 78.2979 29.6322 77.6917 29.1005C77.0854 28.5688 76.2991 28.2859 75.4915 28.3089H49.5308C47.9243 28.3089 46.8436 29.1215 46.4078 30.652C46.0948 31.7486 46.1312 31.7968 47.307 31.7985L62.4878 31.8054Z" fill="#323232"/>
<path d="M52.4609 65.1504C52.3934 59.8136 56.7372 55.1653 62.4903 55.1653C68.2434 55.1653 72.5993 59.8136 72.5664 65.2985C72.5353 70.4632 68.2849 75.2561 62.4713 75.2406C56.6957 75.2251 52.3087 70.4288 52.4609 65.1504ZM55.7723 65.1918C55.7135 68.8157 58.7518 71.9317 62.5163 71.9179C66.2808 71.9042 69.2602 68.7864 69.2256 65.2417C69.191 61.2029 66.113 58.4914 62.5214 58.4673C59.0561 58.4467 55.8501 61.0479 55.7723 65.1969V65.1918Z" fill="#323232"/>
</g>
<path d="M36.6915 101.928C37.1822 101.832 37.6568 101.757 38.1155 101.704C38.5742 101.64 39.0968 101.608 39.6835 101.608C40.3235 101.608 40.8835 101.688 41.3635 101.848C41.8435 101.997 42.2382 102.2 42.5475 102.456C42.8675 102.712 43.1022 103.011 43.2515 103.352C43.4115 103.683 43.4915 104.024 43.4915 104.376C43.4915 105.112 43.2888 105.704 42.8835 106.152C42.4888 106.6 41.8915 106.941 41.0915 107.176C41.3902 107.293 41.6622 107.432 41.9075 107.592C42.1635 107.741 42.3822 107.923 42.5635 108.136C42.7448 108.349 42.8835 108.589 42.9795 108.856C43.0862 109.123 43.1395 109.421 43.1395 109.752C43.1395 110.328 43.0062 110.835 42.7395 111.272C42.4728 111.699 42.1102 112.056 41.6515 112.344C41.1928 112.632 40.6648 112.845 40.0675 112.984C39.4702 113.123 38.8462 113.192 38.1955 113.192C37.4275 113.192 36.7608 113.133 36.1955 113.016C35.6408 112.909 35.1768 112.797 34.8035 112.68L36.6915 101.928ZM37.1715 107.816L36.4995 111.704C37.0648 111.853 37.6675 111.928 38.3075 111.928C39.3635 111.928 40.1742 111.731 40.7395 111.336C41.3048 110.931 41.5875 110.419 41.5875 109.8C41.5875 109.533 41.5288 109.283 41.4115 109.048C41.3048 108.803 41.1288 108.589 40.8835 108.408C40.6382 108.227 40.3235 108.083 39.9395 107.976C39.5662 107.869 39.1075 107.816 38.5635 107.816H37.1715ZM39.6195 102.808C39.2888 102.808 38.9955 102.819 38.7395 102.84C38.4835 102.861 38.2488 102.893 38.0355 102.936L37.3795 106.632H38.9475C39.4595 106.632 39.9075 106.579 40.2915 106.472C40.6755 106.355 40.9955 106.205 41.2515 106.024C41.5075 105.832 41.6942 105.613 41.8115 105.368C41.9395 105.123 42.0035 104.861 42.0035 104.584C42.0035 104.083 41.8008 103.661 41.3955 103.32C41.0008 102.979 40.4088 102.808 39.6195 102.808ZM48.1825 113.192C47.6492 113.192 47.1638 113.107 46.7265 112.936C46.2892 112.755 45.9105 112.504 45.5905 112.184C45.2812 111.853 45.0358 111.453 44.8545 110.984C44.6838 110.515 44.5985 109.987 44.5985 109.4C44.5985 108.739 44.7052 108.109 44.9185 107.512C45.1318 106.915 45.4305 106.392 45.8145 105.944C46.2092 105.496 46.6838 105.144 47.2385 104.888C47.7932 104.621 48.4118 104.488 49.0945 104.488C49.5532 104.488 49.9638 104.557 50.3265 104.696C50.6892 104.835 50.9932 105.016 51.2385 105.24C51.4945 105.464 51.6865 105.725 51.8145 106.024C51.9532 106.323 52.0225 106.632 52.0225 106.952C52.0225 107.549 51.8785 108.035 51.5905 108.408C51.3132 108.781 50.9612 109.08 50.5345 109.304C50.1078 109.517 49.6385 109.667 49.1265 109.752C48.6145 109.827 48.1292 109.864 47.6705 109.864C47.3825 109.864 47.0945 109.853 46.8065 109.832C46.5292 109.8 46.2838 109.768 46.0705 109.736C46.1558 110.44 46.4012 110.979 46.8065 111.352C47.2225 111.725 47.7612 111.912 48.4225 111.912C48.9558 111.912 49.4305 111.843 49.8465 111.704C50.2625 111.565 50.6145 111.427 50.9025 111.288L51.0305 112.568C50.7105 112.717 50.3052 112.861 49.8145 113C49.3345 113.128 48.7905 113.192 48.1825 113.192ZM48.9825 105.704C48.6092 105.704 48.2572 105.779 47.9265 105.928C47.6065 106.067 47.3185 106.264 47.0625 106.52C46.8172 106.776 46.6092 107.08 46.4385 107.432C46.2785 107.784 46.1665 108.168 46.1025 108.584C46.3478 108.637 46.5932 108.675 46.8385 108.696C47.0838 108.717 47.3612 108.728 47.6705 108.728C48.5772 108.728 49.2865 108.605 49.7985 108.36C50.3212 108.104 50.5825 107.672 50.5825 107.064C50.5825 106.691 50.4332 106.371 50.1345 106.104C49.8465 105.837 49.4625 105.704 48.9825 105.704ZM60.9438 107.56C60.9438 108.36 60.7998 109.101 60.5118 109.784C60.2344 110.467 59.8451 111.064 59.3438 111.576C58.8424 112.077 58.2451 112.472 57.5518 112.76C56.8584 113.048 56.1011 113.192 55.2798 113.192C54.7784 113.192 54.3198 113.144 53.9038 113.048C53.4984 112.963 53.1571 112.851 52.8798 112.712L54.9118 101.16H56.3518L55.4398 106.36C55.7491 105.784 56.1438 105.331 56.6238 105C57.1144 104.659 57.6638 104.488 58.2718 104.488C58.6558 104.488 59.0078 104.563 59.3278 104.712C59.6584 104.861 59.9411 105.075 60.1758 105.352C60.4211 105.619 60.6078 105.939 60.7358 106.312C60.8744 106.685 60.9438 107.101 60.9438 107.56ZM57.9038 105.736C57.6158 105.736 57.3171 105.811 57.0078 105.96C56.6984 106.099 56.4051 106.339 56.1278 106.68C55.8504 107.011 55.5944 107.448 55.3598 107.992C55.1251 108.536 54.9384 109.208 54.7998 110.008L54.4798 111.784C54.6504 111.827 54.8264 111.859 55.0078 111.88C55.1998 111.901 55.4024 111.912 55.6158 111.912C56.1598 111.912 56.6664 111.805 57.1358 111.592C57.6158 111.379 58.0264 111.085 58.3678 110.712C58.7091 110.339 58.9758 109.901 59.1678 109.4C59.3704 108.888 59.4718 108.339 59.4718 107.752C59.4718 107.133 59.3278 106.643 59.0398 106.28C58.7518 105.917 58.3731 105.736 57.9038 105.736ZM63.4916 113H62.0516L63.5076 104.68H64.9476L63.4916 113ZM64.5636 103.256C64.265 103.256 64.0356 103.171 63.8756 103C63.7263 102.819 63.6516 102.611 63.6516 102.376C63.6516 102.035 63.7583 101.763 63.9716 101.56C64.185 101.347 64.4516 101.24 64.7716 101.24C65.0703 101.24 65.2943 101.331 65.4436 101.512C65.6036 101.683 65.6836 101.885 65.6836 102.12C65.6836 102.461 65.577 102.739 65.3636 102.952C65.1503 103.155 64.8836 103.256 64.5636 103.256ZM73.8418 113.08C73.2658 113.08 72.8231 112.941 72.5138 112.664C72.2151 112.376 72.0658 111.928 72.0658 111.32C71.7564 111.832 71.3671 112.275 70.8978 112.648C70.4284 113.011 69.8844 113.192 69.2658 113.192C68.8604 113.192 68.4711 113.112 68.0978 112.952C67.7351 112.792 67.4098 112.563 67.1218 112.264C66.8444 111.965 66.6204 111.603 66.4498 111.176C66.2898 110.739 66.2098 110.253 66.2098 109.72C66.2098 108.909 66.3324 108.179 66.5778 107.528C66.8338 106.877 67.1591 106.328 67.5538 105.88C67.9591 105.432 68.4124 105.091 68.9138 104.856C69.4151 104.611 69.9218 104.488 70.4338 104.488C71.0098 104.488 71.5004 104.627 71.9058 104.904C72.3111 105.181 72.6258 105.523 72.8498 105.928L73.6978 101.16H75.1378L73.4418 110.744C73.4311 110.797 73.4204 110.861 73.4098 110.936C73.4098 111 73.4098 111.069 73.4098 111.144C73.4098 111.443 73.4951 111.656 73.6658 111.784C73.8364 111.901 74.0604 111.96 74.3378 111.96L73.8418 113.08ZM69.6498 111.912C69.9484 111.912 70.2418 111.843 70.5298 111.704C70.8178 111.555 71.0791 111.347 71.3138 111.08C71.5591 110.803 71.7671 110.472 71.9378 110.088C72.1191 109.704 72.2524 109.277 72.3378 108.808L72.6258 107.16C72.4124 106.712 72.1244 106.365 71.7618 106.12C71.3991 105.864 70.9991 105.736 70.5618 105.736C70.1884 105.736 69.8258 105.821 69.4738 105.992C69.1324 106.163 68.8284 106.413 68.5618 106.744C68.2951 107.064 68.0818 107.459 67.9218 107.928C67.7618 108.397 67.6818 108.925 67.6818 109.512C67.6818 109.907 67.7351 110.253 67.8418 110.552C67.9591 110.851 68.1084 111.101 68.2898 111.304C68.4711 111.507 68.6791 111.661 68.9138 111.768C69.1484 111.864 69.3938 111.912 69.6498 111.912ZM75.7704 109.72C75.7704 108.952 75.8984 108.248 76.1544 107.608C76.421 106.957 76.789 106.403 77.2584 105.944C77.7277 105.485 78.2877 105.128 78.9384 104.872C79.589 104.616 80.2984 104.488 81.0664 104.488C81.6957 104.488 82.245 104.552 82.7144 104.68C83.1944 104.808 83.589 104.936 83.8984 105.064L82.8904 110.744C82.8797 110.797 82.869 110.861 82.8584 110.936C82.8584 111 82.8584 111.069 82.8584 111.144C82.8584 111.443 82.9437 111.656 83.1144 111.784C83.285 111.901 83.509 111.96 83.7864 111.96L83.2904 113.08C82.7144 113.08 82.2717 112.941 81.9624 112.664C81.6637 112.387 81.5144 111.944 81.5144 111.336C81.2157 111.848 80.837 112.285 80.3784 112.648C79.9304 113.011 79.4024 113.192 78.7944 113.192C78.3997 113.192 78.021 113.112 77.6584 112.952C77.2957 112.792 76.9704 112.563 76.6824 112.264C76.405 111.965 76.181 111.603 76.0104 111.176C75.8504 110.739 75.7704 110.253 75.7704 109.72ZM82.3144 105.912C82.1117 105.848 81.8984 105.8 81.6744 105.768C81.461 105.725 81.1997 105.704 80.8904 105.704C80.3357 105.704 79.8344 105.8 79.3864 105.992C78.9384 106.184 78.5544 106.451 78.2344 106.792C77.9144 107.133 77.669 107.539 77.4984 108.008C77.3277 108.477 77.2424 108.989 77.2424 109.544C77.2424 109.928 77.2957 110.269 77.4024 110.568C77.5197 110.856 77.669 111.101 77.8504 111.304C78.0317 111.507 78.2344 111.661 78.4584 111.768C78.693 111.864 78.933 111.912 79.1784 111.912C79.4984 111.912 79.8024 111.827 80.0904 111.656C80.389 111.485 80.6557 111.245 80.8904 110.936C81.125 110.616 81.3277 110.243 81.4984 109.816C81.669 109.379 81.797 108.904 81.8824 108.392L82.3144 105.912ZM91.0631 106.488C90.7538 106.275 90.4071 106.088 90.0231 105.928C89.6498 105.768 89.2231 105.688 88.7431 105.688C88.2311 105.688 87.8365 105.773 87.5591 105.944C87.2925 106.115 87.1591 106.339 87.1591 106.616C87.1591 106.744 87.1805 106.861 87.2231 106.968C87.2765 107.075 87.3618 107.187 87.4791 107.304C87.6071 107.411 87.7778 107.528 87.9911 107.656C88.2045 107.784 88.4765 107.933 88.8071 108.104C89.5431 108.477 90.0818 108.856 90.4231 109.24C90.7751 109.613 90.9511 110.088 90.9511 110.664C90.9511 111.091 90.8658 111.464 90.6951 111.784C90.5245 112.093 90.2845 112.355 89.9751 112.568C89.6765 112.771 89.3245 112.925 88.9191 113.032C88.5138 113.139 88.0765 113.192 87.6071 113.192C86.9565 113.192 86.3805 113.112 85.8791 112.952C85.3885 112.781 84.9618 112.563 84.5991 112.296L85.4151 111.112C85.7031 111.347 86.0391 111.544 86.4231 111.704C86.8178 111.864 87.2551 111.944 87.7351 111.944C88.2791 111.944 88.7005 111.843 88.9991 111.64C89.3085 111.437 89.4631 111.187 89.4631 110.888C89.4631 110.749 89.4365 110.621 89.3831 110.504C89.3405 110.376 89.2551 110.248 89.1271 110.12C88.9991 109.992 88.8231 109.864 88.5991 109.736C88.3858 109.597 88.1138 109.443 87.7831 109.272C87.3778 109.069 87.0418 108.877 86.7751 108.696C86.5191 108.504 86.3111 108.307 86.1511 108.104C86.0018 107.901 85.8951 107.688 85.8311 107.464C85.7671 107.229 85.7351 106.973 85.7351 106.696C85.7351 106.376 85.8098 106.083 85.9591 105.816C86.1085 105.539 86.3165 105.304 86.5831 105.112C86.8498 104.92 87.1698 104.771 87.5431 104.664C87.9165 104.547 88.3271 104.488 88.7751 104.488C89.3725 104.488 89.9058 104.568 90.3751 104.728C90.8551 104.877 91.2765 105.059 91.6391 105.272L91.0631 106.488Z" fill="#2D2D2D"/>
<defs>
<clipPath id="clip0">
<rect width="47" height="67" fill="white" transform="translate(39 25)"/>
</clipPath>
</defs>
</svg>
